REM DIRINDEX 1\2,1\4,1\3\5,1\3\6,1\3\7
REM DIRNAME cjc083,folder01,folder02,folder03,folder04,folder05,folder06
TITLE ""
FILE "CD1Track07.mp3" MP3
  TRACK 01 AUDIO
    TITLE "0:"
    INDEX 01 00:00:00
  TRACK 02 AUDIO
    TITLE "5:cjc083_0115"
    INDEX 01 00:00:25
  TRACK 03 AUDIO
    TITLE "0:"
    INDEX 01 00:01:38
  TRACK 04 AUDIO
    TITLE "6:cjc083_0116"
    INDEX 01 00:02:04
  TRACK 05 AUDIO
    TITLE "0:"
    INDEX 01 00:03:45
  TRACK 06 AUDIO
    TITLE "5:cjc083_0117"
    INDEX 01 00:04:13
  TRACK 07 AUDIO
    TITLE "0:"
    INDEX 01 00:05:24
  TRACK 08 AUDIO
    TITLE "6:cjc083_0118"
    INDEX 01 00:05:65
  TRACK 09 AUDIO
    TITLE "0:"
    INDEX 01 00:08:44
  TRACK 10 AUDIO
    TITLE "5:cjc083_0119"
    INDEX 01 00:09:08
  TRACK 11 AUDIO
    TITLE "0:"
    INDEX 01 00:10:21
  TRACK 12 AUDIO
    TITLE "6:cjc083_0120"
    INDEX 01 00:10:63
  TRACK 13 AUDIO
    TITLE "0:"
    INDEX 01 00:11:68
  TRACK 14 AUDIO
    TITLE "5:cjc083_0121"
    INDEX 01 00:12:42
  TRACK 15 AUDIO
    TITLE "0:"
    INDEX 01 00:14:04
  TRACK 16 AUDIO
    TITLE "6:cjc083_0122"
    INDEX 01 00:14:47
  TRACK 17 AUDIO
    TITLE "0:"
    INDEX 01 00:16:57
  TRACK 18 AUDIO
    TITLE "5:cjc083_0123"
    INDEX 01 00:17:25
  TRACK 19 AUDIO
    TITLE "0:"
    INDEX 01 00:18:62
  TRACK 20 AUDIO
    TITLE "6:cjc083_0124"
    INDEX 01 00:19:30
  TRACK 21 AUDIO
    TITLE "0:"
    INDEX 01 00:20:36
  TRACK 22 AUDIO
    TITLE "5:cjc083_0125"
    INDEX 01 00:21:06
  TRACK 23 AUDIO
    TITLE "0:"
    INDEX 01 00:22:36
  TRACK 24 AUDIO
    TITLE "6:cjc083_0126"
    INDEX 01 00:23:04
  TRACK 25 AUDIO
    TITLE "0:"
    INDEX 01 00:24:29
  TRACK 26 AUDIO
    TITLE "5:cjc083_0127"
    INDEX 01 00:24:69
  TRACK 27 AUDIO
    TITLE "0:"
    INDEX 01 00:26:30
  TRACK 28 AUDIO
    TITLE "6:cjc083_0128"
    INDEX 01 00:26:71
  TRACK 29 AUDIO
    TITLE "0:"
    INDEX 01 00:29:40
  TRACK 30 AUDIO
    TITLE "5:cjc083_0129"
    INDEX 01 00:30:12
  TRACK 31 AUDIO
    TITLE "0:"
    INDEX 01 00:31:20
  TRACK 32 AUDIO
    TITLE "6:cjc083_0130"
    INDEX 01 00:31:61
  TRACK 33 AUDIO
    TITLE "0:"
    INDEX 01 00:32:68
  TRACK 34 AUDIO
    TITLE "5:cjc083_0131"
    INDEX 01 00:33:36
  TRACK 35 AUDIO
    TITLE "0:"
    INDEX 01 00:34:53
  TRACK 36 AUDIO
    TITLE "6:cjc083_0132"
    INDEX 01 00:35:15
  TRACK 37 AUDIO
    TITLE "0:"
    INDEX 01 00:36:40
  TRACK 38 AUDIO
    TITLE "5:cjc083_0133"
    INDEX 01 00:37:05
  TRACK 39 AUDIO
    TITLE "0:"
    INDEX 01 00:38:43
  TRACK 40 AUDIO
    TITLE "6:cjc083_0134"
    INDEX 01 00:39:07
  TRACK 41 AUDIO
    TITLE "0:"
    INDEX 01 00:41:04
  TRACK 42 AUDIO
    TITLE "5:cjc083_0135"
    INDEX 01 00:41:44
  TRACK 43 AUDIO
    TITLE "0:"
    INDEX 01 00:42:59
  TRACK 44 AUDIO
    TITLE "6:cjc083_0136"
    INDEX 01 00:43:21
  TRACK 45 AUDIO
    TITLE "0:"
    INDEX 01 00:44:28
  TRACK 46 AUDIO
    TITLE "5:cjc083_0137"
    INDEX 01 00:44:73
  TRACK 47 AUDIO
    TITLE "0:"
    INDEX 01 00:46:02
  TRACK 48 AUDIO
    TITLE "6:cjc083_0138"
    INDEX 01 00:46:51
  TRACK 49 AUDIO
    TITLE "0:"
    INDEX 01 00:47:60
  TRACK 50 AUDIO
    TITLE "5:cjc083_0139"
    INDEX 01 00:48:30
  TRACK 51 AUDIO
    TITLE "0:"
    INDEX 01 00:50:11
  TRACK 52 AUDIO
    TITLE "6:cjc083_0140"
    INDEX 01 00:50:48
  TRACK 53 AUDIO
    TITLE "0:"
    INDEX 01 00:52:32
  TRACK 54 AUDIO
    TITLE "5:cjc083_0141"
    INDEX 01 00:52:71
  TRACK 55 AUDIO
    TITLE "0:"
    INDEX 01 00:54:11
  TRACK 56 AUDIO
    TITLE "6:cjc083_0142"
    INDEX 01 00:54:54
  TRACK 57 AUDIO
    TITLE "0:"
    INDEX 01 00:55:53
  TRACK 58 AUDIO
    TITLE "5:cjc083_0143"
    INDEX 01 00:56:25
  TRACK 59 AUDIO
    TITLE "0:"
    INDEX 01 00:57:52
  TRACK 60 AUDIO
    TITLE "6:cjc083_0144"
    INDEX 01 00:58:20
  TRACK 61 AUDIO
    TITLE "0:"
    INDEX 01 00:59:51
  TRACK 62 AUDIO
    TITLE "7:cjc083_0145"
    INDEX 01 01:01:17
  TRACK 63 AUDIO
    TITLE "0:"
    INDEX 01 01:12:40
